<?xml version="1.0" encoding="UTF-8"?>
<svg width="165px" height="46px" viewBox="0 0 165 46" version="1.1" xmlns="http://www.w3.org/2000/svg" xmlns:xlink="http://www.w3.org/1999/xlink">
    <!-- Generator: Sketch 58 (84663) - https://sketch.com -->
    <title>logo</title>
    <desc>Created with Sketch.</desc>
    <g id="logo" stroke="none" stroke-width="1" fill="none" fill-rule="evenodd">
        <g id="Group" transform="translate(0.000000, 2.000000)">
            <g id="2" opacity="0.299269903" transform="translate(12.000000, 0.000000)" fill="#3167EB">
                <path d="M2.61522369,16.7573593 L16.7573593,2.61522369 C19.1005051,0.272077939 22.8994949,0.272077939 25.2426407,2.61522369 L39.3847763,16.7573593 C41.7279221,19.1005051 41.7279221,22.8994949 39.3847763,25.2426407 L25.2426407,39.3847763 C22.8994949,41.7279221 19.1005051,41.7279221 16.7573593,39.3847763 L2.61522369,25.2426407 C0.272077939,22.8994949 0.272077939,19.1005051 2.61522369,16.7573593 Z"></path>
            </g>
            <path d="M2.61522369,16.7573593 L16.7573593,2.61522369 C19.1005051,0.272077939 22.8994949,0.272077939 25.2426407,2.61522369 L39.3847763,16.7573593 C41.7279221,19.1005051 41.7279221,22.8994949 39.3847763,25.2426407 L25.2426407,39.3847763 C22.8994949,41.7279221 19.1005051,41.7279221 16.7573593,39.3847763 L2.61522369,25.2426407 C0.272077939,22.8994949 0.272077939,19.1005051 2.61522369,16.7573593 Z" id="1" fill="#3167EB"></path>
            <g id="Group-2" transform="translate(20.000000, 20.500000) rotate(-45.000000) translate(-20.000000, -20.500000) translate(14.000000, 13.000000)" fill="#FFFFFF">
                <path d="M2.62135937,4.73009016 L1.94707072,4.73009016 C1.91231395,4.73009016 1.86078164,4.77843651 1.85878531,4.81037793 L1.36204322,12.8387982 L10.6428723,12.8370533 L10.1412051,4.81037793 C10.1392848,4.77965387 10.0864529,4.73009016 10.0529197,4.73009016 L9.37863102,4.73009016 L9.37863102,6.08154449 C9.37863102,6.4547383 9.07609766,6.75727165 8.70290385,6.75727165 C8.32971005,6.75727165 8.02717669,6.4547383 8.02717669,6.08154449 L8.02717669,4.73009016 L3.9728137,4.73009016 L3.9728137,6.08154449 C3.9728137,6.4547383 3.67028034,6.75727165 3.29708653,6.75727165 C2.92389272,6.75727165 2.62135937,6.4547383 2.62135937,6.08154449 L2.62135937,4.73009016 Z" id="Path" opacity="0.329589844"></path>
                <path d="M5.99999519,-1.24344979e-14 C7.86501653,-1.24344979e-14 9.37863102,1.51380326 9.37863102,3.37703953 L10.0529197,3.37863583 C10.8001018,3.37863583 11.4435905,3.98308307 11.4900276,4.72607653 L11.9973246,12.8428298 C12.0438353,13.5870007 11.4783702,14.1902705 10.7334036,14.1902705 L1.26658674,14.1902705 C0.522031765,14.1902705 -0.0437713433,13.5858232 0.00266574759,12.8428298 L0.509962826,4.72607653 C0.55647351,3.98190558 1.19862511,3.37863583 1.94707072,3.37863583 L2.62135937,3.37863583 C2.62135937,1.51279284 4.13622116,-1.24344979e-14 5.99999519,-1.24344979e-14 Z M8.02717669,3.37863583 C8.02717669,2.26015316 7.11859118,1.35145433 5.99999519,1.35145433 C4.88219562,1.35145433 3.9728137,2.25959424 3.9728137,3.37703953 L8.02717669,3.37863583 Z M2.62135937,4.73009016 L1.94707072,4.73009016 C1.91231395,4.73009016 1.86078164,4.77843651 1.85878531,4.81037793 L1.36204322,12.8387982 L10.6428723,12.8370533 L10.1412051,4.81037793 C10.1392848,4.77965387 10.0864529,4.73009016 10.0529197,4.73009016 L9.37863102,4.73009016 L9.37863102,6.08154449 C9.37863102,6.4547383 9.07609766,6.75727165 8.70290385,6.75727165 C8.32971005,6.75727165 8.02717669,6.4547383 8.02717669,6.08154449 L8.02717669,4.73009016 L3.9728137,4.73009016 L3.9728137,6.08154449 C3.9728137,6.4547383 3.67028034,6.75727165 3.29708653,6.75727165 C2.92389272,6.75727165 2.62135937,6.4547383 2.62135937,6.08154449 L2.62135937,4.73009016 Z" id="Combined-Shape"></path>
            </g>
        </g>
        <g id="Group-4" transform="translate(61.948153, 5.000000)" fill-rule="nonzero">
            <path d="M0.0518465909,12.616408 L0.0518465909,0.909090909 L4.90965653,0.909090909 C6.24852304,0.909090909 7.25463255,1.19014755 7.92801527,1.75226926 C8.60139798,2.31439098 8.93808428,3.03370543 8.93808428,3.9102342 C8.93808428,4.60002424 8.73074081,5.15737385 8.31604765,5.58229975 C7.90135448,6.00722566 7.37805905,6.2882823 6.74614565,6.4254781 L6.74614565,6.53980737 C7.20823232,6.55886235 7.64167892,6.68462328 8.04649844,6.91709396 C8.45131795,7.14956463 8.78010546,7.47349432 9.03287082,7.88889274 C9.28563618,8.30429116 9.41201696,8.8016185 9.41201696,9.38088969 C9.41201696,10.0020818 9.25305363,10.5565732 8.9351222,11.0443805 C8.61719078,11.5321879 8.14819959,11.9161398 7.52813457,12.1962479 C6.90806955,12.476356 6.14386075,12.616408 5.23548524,12.616408 L0.0518465909,12.616408 Z M2.6170072,10.5927799 L4.70823514,10.5927799 C5.42703663,10.5927799 5.94934471,10.4593971 6.27517505,10.1926275 C6.6010054,9.92585787 6.76391813,9.57334615 6.76391813,9.13508176 C6.76391813,8.65108544 6.5852078,8.25474794 6.22778179,7.94605737 C5.87035577,7.6373668 5.38359229,7.48302384 4.76747673,7.48302384 L2.6170072,7.48302384 L2.6170072,10.5927799 Z M2.6170072,5.80810006 L4.51866207,5.80810006 C5.04394008,5.80810006 5.48034872,5.67566998 5.82790109,5.41080585 C6.17545346,5.14594172 6.34922704,4.78294992 6.34922704,4.32181957 C6.34922704,3.89879916 6.19421311,3.55772025 5.8841806,3.29857262 C5.57414809,3.03942498 5.13477739,2.9098531 4.56605534,2.9098531 L2.6170072,2.9098531 L2.6170072,5.80810006 Z M14.9182458,12.7879019 C13.9980219,12.7879019 13.2032053,12.5983077 12.533772,12.2191138 C11.8643388,11.8399198 11.3479548,11.3101995 10.9846046,10.6299369 C10.6212544,9.9496744 10.439582,9.1598576 10.439582,8.26046286 C10.439582,7.35344613 10.6212544,6.5598184 10.9846046,5.87955585 C11.3479548,5.1992933 11.8643388,4.66957299 12.533772,4.29037902 C13.2032053,3.91118505 13.9980219,3.72159091 14.9182458,3.72159091 C15.8384697,3.72159091 16.6332863,3.91118505 17.3027196,4.29037902 C17.9721528,4.66957299 18.4885368,5.1992933 18.851887,5.87955585 C19.2152372,6.5598184 19.3969096,7.35344613 19.3969096,8.26046286 C19.3969096,9.1598576 19.2152372,9.9496744 18.851887,10.6299369 C18.4885368,11.3101995 17.9721528,11.8399198 17.3027196,12.2191138 C16.6332863,12.5983077 15.8384697,12.7879019 14.9182458,12.7879019 Z M14.9300941,10.901469 C15.5541086,10.901469 16.0270492,10.6499471 16.3489301,10.1468958 C16.6708109,9.64384449 16.831749,9.0093234 16.831749,8.24331347 C16.831749,7.47730354 16.6708109,6.84182971 16.3489301,6.33687292 C16.0270492,5.83191613 15.5541086,5.57944152 14.9300941,5.57944152 C14.2942313,5.57944152 13.8143792,5.83191613 13.4905236,6.33687292 C13.166668,6.84182971 13.0047426,7.47730354 13.0047426,8.24331347 C13.0047426,9.0093234 13.166668,9.64384449 13.4905236,10.1468958 C13.8143792,10.6499471 14.2942313,10.901469 14.9300941,10.901469 Z M24.9327592,12.7879019 C24.0125353,12.7879019 23.2177187,12.5983077 22.5482854,12.2191138 C21.8788522,11.8399198 21.3624682,11.3101995 20.999118,10.6299369 C20.6357678,9.9496744 20.4540954,9.1598576 20.4540954,8.26046286 C20.4540954,7.35344613 20.6357678,6.5598184 20.999118,5.87955585 C21.3624682,5.1992933 21.8788522,4.66957299 22.5482854,4.29037902 C23.2177187,3.91118505 24.0125353,3.72159091 24.9327592,3.72159091 C25.8529831,3.72159091 26.6477997,3.91118505 27.317233,4.29037902 C27.9866662,4.66957299 28.5030502,5.1992933 28.8664004,5.87955585 C29.2297506,6.5598184 29.411423,7.35344613 29.411423,8.26046286 C29.411423,9.1598576 29.2297506,9.9496744 28.8664004,10.6299369 C28.5030502,11.3101995 27.9866662,11.8399198 27.317233,12.2191138 C26.6477997,12.5983077 25.8529831,12.7879019 24.9327592,12.7879019 Z M24.9446075,10.901469 C25.568622,10.901469 26.0415626,10.6499471 26.3634435,10.1468958 C26.6853244,9.64384449 26.8462624,9.0093234 26.8462624,8.24331347 C26.8462624,7.47730354 26.6853244,6.84182971 26.3634435,6.33687292 C26.0415626,5.83191613 25.568622,5.57944152 24.9446075,5.57944152 C24.3087447,5.57944152 23.8288926,5.83191613 23.505037,6.33687292 C23.1811814,6.84182971 23.019256,7.47730354 23.019256,8.24331347 C23.019256,9.0093234 23.1811814,9.64384449 23.505037,10.1468958 C23.8288926,10.6499471 24.3087447,10.901469 24.9446075,10.901469 Z M35.6759441,3.83592018 L35.6759441,5.66518847 L33.9638623,5.66518847 L33.9638623,9.91823725 C33.9638623,10.2536048 34.0428503,10.4803556 34.2008287,10.5984964 C34.358807,10.7166372 34.5641758,10.7757068 34.8169411,10.7757068 C34.9354249,10.7757068 35.0539069,10.7652267 35.1723906,10.7442662 L35.4449019,10.6956763 L35.4449019,10.6956763 L35.8418206,12.5077952 L35.6137406,12.5699617 C35.5248785,12.5923511 35.4231806,12.6164079 35.3086463,12.6421321 C35.0795777,12.6935805 34.801145,12.7250207 34.47334,12.7364537 C33.5570655,12.7745637 32.8214899,12.5830641 32.2665909,12.1619491 C31.711692,11.7408342 31.4362214,11.099644 31.4401708,10.2383592 L31.4401708,5.66518847 L30.1960975,5.66518847 L30.1960975,3.83592018 L31.4401708,3.83592018 L31.4401708,1.73226164 L33.9638623,1.73226164 L33.9638623,3.83592018 L35.6759441,3.83592018 Z M44.5411708,6.33973115 L42.230749,6.47692627 C42.1675577,6.19491267 42.007607,5.95291814 41.7508922,5.75093542 C41.4941773,5.5489527 41.1466302,5.44796286 40.7082403,5.44796286 C40.3172439,5.44796286 39.9864817,5.52703981 39.7159437,5.68519609 C39.4454058,5.84335237 39.3121136,6.05390667 39.316063,6.3168653 C39.3121136,6.52647001 39.398013,6.7036786 39.5737639,6.8484964 C39.7495148,6.99331419 40.0486818,7.10954779 40.4712739,7.19720067 L42.11819,7.51732262 C43.8678002,7.86412313 44.7445669,8.65679813 44.7485163,9.8953714 C44.7485163,10.4708316 44.5737554,10.9757808 44.2242283,11.4102342 C43.8747012,11.8446876 43.3958365,12.1829083 42.7876199,12.4249065 C42.1794032,12.6669046 41.4823342,12.7879019 40.696392,12.7879019 C39.491807,12.7879019 38.532103,12.5449546 37.8172509,12.0590528 C37.1023989,11.573151 36.6857373,10.9110006 36.5672535,10.0725818 L39.0494759,9.94681957 C39.1284651,10.3050531 39.3111248,10.5756296 39.5974606,10.7585574 C39.8837963,10.9414851 40.2520778,11.0329476 40.7023161,11.0329476 C41.1446555,11.0329476 41.5010888,10.949107 41.7716267,10.7814232 C42.0421646,10.6137395 42.1794063,10.400327 42.1833557,10.1411793 C42.1715074,9.70672593 41.7824915,9.41518921 41.0162965,9.26656042 L39.4404704,8.96358786 C37.6790118,8.62440934 36.8022451,7.78790855 36.810144,6.45406042 C36.8061945,5.60801961 37.1567037,4.94110554 37.8616821,4.45329823 C38.5666605,3.96549091 39.5016808,3.72159091 40.6667712,3.72159091 C41.8160636,3.72159091 42.7214635,3.95596357 43.3829978,4.42471591 C44.0445322,4.89346825 44.430586,5.53180028 44.5411708,6.33973115 Z M50.95972,3.83592018 L50.95972,5.66518847 L49.2476382,5.66518847 L49.2476382,9.91823725 C49.2476382,10.2536048 49.3266262,10.4803556 49.4846046,10.5984964 C49.6425829,10.7166372 49.8479517,10.7757068 50.1007171,10.7757068 C50.2192008,10.7757068 50.3376828,10.7652267 50.4561666,10.7442662 L50.7286778,10.6956763 L50.7286778,10.6956763 L51.1255965,12.5077952 L50.8975166,12.5699617 C50.8086544,12.5923511 50.7069565,12.6164079 50.5924222,12.6421321 C50.3633536,12.6935805 50.0849209,12.7250207 49.7571159,12.7364537 C48.8408414,12.7745637 48.1052658,12.5830641 47.5503668,12.1619491 C46.9954679,11.7408342 46.7199973,11.099644 46.7239467,10.2383592 L46.7239467,5.66518847 L45.4798735,5.66518847 L45.4798735,3.83592018 L46.7239467,3.83592018 L46.7239467,1.73226164 L49.2476382,1.73226164 L49.2476382,3.83592018 L50.95972,3.83592018 Z M52.3782795,12.616408 L52.3782795,3.83592018 L54.824957,3.83592018 L54.824957,5.36793237 L54.9197435,5.36793237 C55.0856208,4.82296014 55.3640534,4.41042615 55.7550498,4.13031804 C56.1460463,3.85020994 56.5962778,3.71015798 57.105758,3.71015798 C57.3861695,3.71015798 57.6507793,3.73874001 57.8995952,3.79590493 L57.8995952,5.9567281 C57.7811114,5.91861816 57.6172114,5.88717792 57.4078901,5.86240646 C57.1985687,5.83763499 57.0070229,5.82524945 56.8332467,5.82524945 C56.276373,5.82524945 55.8152806,5.99388343 55.4499557,6.33115646 C55.0846307,6.66842949 54.901971,7.10764003 54.901971,7.64880127 L54.901971,12.616408 L52.3782795,12.616408 Z M61.3145961,12.7821854 C60.4457152,12.7821854 59.7249498,12.5630565 59.1522783,12.1247921 C58.5796067,11.6865277 58.2932753,11.032952 58.2932753,10.1640452 C58.2932753,9.5085541 58.453226,8.99407753 58.7731321,8.62060006 C59.0930383,8.24712258 59.512662,7.97368781 60.0320158,7.80028756 C60.4474988,7.66156735 60.888885,7.56126306 61.3561828,7.49937294 L62.2047572,7.40878028 C62.7412962,7.34818108 63.1416491,7.28527687 63.405824,7.22006652 C63.7454775,7.13622464 63.9153017,6.95329964 63.9153017,6.67128603 L63.9153017,6.63698725 C63.9153017,6.27494276 63.797807,5.99483885 63.5628142,5.79666713 C63.3278214,5.59849541 62.9950845,5.49941103 62.5645935,5.49941103 C62.1104058,5.49941103 61.7490357,5.59468447 61.4804725,5.7852342 C61.2119093,5.97578394 61.0341864,6.21777847 60.9472983,6.51122506 L58.6131798,6.32829823 C58.786956,5.52798935 59.2184279,4.89346825 59.9076085,4.42471591 C60.596789,3.95596357 61.4863912,3.72159091 62.5764419,3.72159091 C63.2517993,3.72159091 63.8837032,3.82448622 64.4721726,4.03027993 C65.0606419,4.23607365 65.5355572,4.55714513 65.8969327,4.99350402 C66.2583081,5.42986291 66.4389932,5.99673986 66.4389932,6.69415188 L66.4389932,12.616408 L64.0456331,12.616408 L64.0456331,11.3988013 L63.9745432,11.3988013 C63.7533736,11.8065777 63.4226114,12.139082 62.9822467,12.3963241 C62.5418821,12.6535663 61.9860041,12.7821854 61.3145961,12.7821854 Z M62.0373434,11.1015452 C62.5902677,11.1015452 63.0444486,10.9462495 63.3998999,10.6356534 C63.7553512,10.3250573 63.9330741,9.93919992 63.9330741,9.47806957 L63.9330741,8.54628603 C63.8343377,8.61107294 63.6812984,8.668237 63.4739519,8.71777993 C63.2666053,8.76732286 63.0454389,8.81019591 62.8104461,8.84640036 L62.1795232,8.94072201 L62.1795232,8.94072201 C61.7371839,9.00169792 61.3807506,9.12174245 61.1102126,9.3008592 C60.8396747,9.47997595 60.7044078,9.74102517 60.7044078,10.0840147 C60.7044078,10.4193822 60.8298012,10.6728096 61.0805918,10.8443043 C61.3313825,11.0157991 61.6502965,11.1015452 62.0373434,11.1015452 Z M73.36702,3.72159091 C74.0344786,3.72159091 74.6466355,3.88831942 75.2035092,4.22178146 C75.7603828,4.55524349 76.2076523,5.05638177 76.545331,5.72521134 C76.8830098,6.3940409 77.0518466,7.23149442 77.0518466,8.23759701 C77.0518466,9.21702264 76.8879465,10.0430433 76.5601414,10.7156839 C76.2323364,11.3883245 75.7900036,11.8970846 75.2331299,12.2419796 C74.6762563,12.5868746 74.0522511,12.7593196 73.3610959,12.7593196 C72.871363,12.7593196 72.4556887,12.6811953 72.1140605,12.5249446 C71.7724323,12.3686938 71.4939997,12.1714778 71.2787542,11.9332906 C71.0635087,11.6951034 70.8966465,11.4540616 70.7781628,11.210158 L70.7011487,11.210158 L70.7011487,15.9090909 L68.1774572,15.9090909 L68.1774572,3.83592018 L70.6656038,3.83592018 L70.6656038,5.31076774 L70.7781628,5.31076774 C70.8926971,5.07067507 71.0546225,4.82868054 71.2639438,4.58477688 C71.4732651,4.34087323 71.749723,4.13603534 72.093326,3.97025707 C72.4369289,3.8044788 72.8614893,3.72159091 73.36702,3.72159091 Z M72.5613345,5.65947201 C71.9491684,5.65947201 71.4772151,5.89098646 71.1454606,6.35402231 C70.8137061,6.81705816 70.6478313,7.44109918 70.6478313,8.22616408 C70.6478313,9.00741799 70.8146934,9.63526994 71.1484227,10.1097388 C71.4821519,10.5842076 71.9531178,10.8214385 72.5613345,10.8214385 C73.1813995,10.8214385 73.6553274,10.5803967 73.9831325,10.0983058 C74.3109376,9.61621502 74.4748377,8.99217401 74.4748377,8.22616408 C74.4748377,7.46396515 74.3119249,6.84564054 73.9860946,6.3711717 C73.6602642,5.89670287 73.185349,5.65947201 72.5613345,5.65947201 Z" id="Bootstrap" fill="#B1B9CC"></path>
            <path d="M0.0518465909,31.7358474 L0.0518465909,19.9090909 L8.19750799,19.9090909 L8.19750799,21.9706886 L2.60769542,21.9706886 L2.60769542,24.7887829 L7.77841962,24.7887829 L7.77841962,26.8503806 L2.60769542,26.8503806 L2.60769542,29.6742497 L8.22111861,29.6742497 L8.22111861,31.7358474 L0.0518465909,31.7358474 Z M14.0615185,31.9090909 C13.1328297,31.9090909 12.3349958,31.7156376 11.6679926,31.3287252 C11.0009895,30.9418127 10.4894313,30.4038008 10.1333028,29.7146732 C9.77717426,29.0255456 9.59911267,28.2324833 9.59911267,27.3354624 C9.59911267,26.4268919 9.77914179,25.6290173 10.1392054,24.9418147 C10.4992691,24.254612 11.011811,23.7175625 11.6768466,23.3306501 C12.3418822,22.9437377 13.1328298,22.7502844 14.0497132,22.7502844 C14.8406727,22.7502844 15.5342275,22.8908027 16.1303984,23.1718436 C16.7265694,23.4528844 17.1968094,23.8474907 17.5411325,24.3556742 C17.8854557,24.8638576 18.0753225,25.4605827 18.1107386,26.145857 L15.737872,26.145857 C15.6709749,25.7031214 15.4948809,25.3460509 15.2095845,25.0746347 C14.9242882,24.8032185 14.551441,24.6675125 14.0910317,24.6675125 C13.5086337,24.6675125 13.0403612,24.8965766 12.6862003,25.3547117 C12.3320393,25.8128468 12.1549615,26.461541 12.1549615,27.3008137 C12.1549615,28.1477862 12.3310556,28.8032176 12.683249,29.2671275 C13.0354424,29.7310374 13.5046986,29.9629889 14.0910317,29.9629889 C14.5238951,29.9629889 14.8878885,29.8349825 15.1830226,29.5789658 C15.4781567,29.3229491 15.6631047,28.9581789 15.737872,28.4846443 L18.1107386,28.4846443 C18.0713873,29.1622223 17.8834881,29.758944 17.5470352,30.2748272 C17.2105823,30.7907104 16.7472286,31.1920539 16.1569604,31.4788695 C15.5666921,31.7656852 14.8682184,31.9090909 14.0615185,31.9090909 Z M23.6028819,31.9090909 C22.6859985,31.9090909 21.8940671,31.7175625 21.227064,31.3345 C20.5600608,30.9514374 20.0455514,30.4163128 19.6835202,29.7291102 C19.321489,29.0419075 19.1404761,28.2440329 19.1404761,27.3354624 C19.1404761,26.4191922 19.321489,25.6174678 19.6835202,24.9302651 C20.0455514,24.2430624 20.5600608,23.7079379 21.227064,23.3248753 C21.8940671,22.9418128 22.6859985,22.7502844 23.6028819,22.7502844 C24.5197653,22.7502844 25.3116967,22.9418128 25.9786998,23.3248753 C26.645703,23.7079379 27.1602124,24.2430624 27.5222436,24.9302651 C27.8842748,25.6174678 28.0652877,26.4191922 28.0652877,27.3354624 C28.0652877,28.2440329 27.8842748,29.0419075 27.5222436,29.7291102 C27.1602124,30.4163128 26.645703,30.9514374 25.9786998,31.3345 C25.3116967,31.7175625 24.5197653,31.9090909 23.6028819,31.9090909 Z M23.6146872,30.0034124 C24.2364365,30.0034124 24.7076602,29.7493244 25.0283726,29.241141 C25.3490851,28.7329575 25.5094389,28.0919629 25.5094389,27.3181381 C25.5094389,26.5443132 25.3490851,25.9023562 25.0283726,25.3922478 C24.7076602,24.8821394 24.2364365,24.627089 23.6146872,24.627089 C22.9811326,24.627089 22.5030225,24.8821394 22.1803425,25.3922478 C21.8576625,25.9023562 21.6963249,26.5443132 21.6963249,27.3181381 C21.6963249,28.0919629 21.8576625,28.7329575 22.1803425,29.241141 C22.5030225,29.7493244 22.9811326,30.0034124 23.6146872,30.0034124 Z M29.4846003,31.7358474 L29.4846003,22.86578 L31.8810775,22.86578 L31.8810775,24.4307463 L31.9873253,24.4307463 C32.1762111,23.9071634 32.4919999,23.4961954 32.9347011,23.1978301 C33.3774023,22.8994648 33.903717,22.7502844 34.5136609,22.7502844 C35.1354101,22.7502844 35.6646761,22.9013897 36.1014746,23.2036049 C36.5382731,23.50582 36.8294677,23.9148631 36.9750672,24.4307463 L37.0695097,24.4307463 C37.2544604,23.9225629 37.5899245,23.5154447 38.0759121,23.2093796 C38.5618996,22.9033146 39.1374025,22.7502844 39.8024381,22.7502844 C40.6484893,22.7502844 41.3361415,23.0130344 41.8654154,23.5385423 C42.3946893,24.0640502 42.6593223,24.8080274 42.6593223,25.7704961 L42.6593223,31.7358474 L40.1506947,31.7358474 L40.1506947,26.2555779 C40.1506947,25.7627939 40.0169025,25.3932115 39.7493142,25.1468195 C39.481726,24.9004275 39.1472456,24.7772334 38.7458632,24.7772334 C38.2893891,24.7772334 37.9332659,24.9196766 37.677483,25.2045673 C37.4217001,25.4894581 37.2938105,25.8609654 37.2938105,26.3191005 L37.2938105,31.7358474 L34.8560148,31.7358474 L34.8560148,26.2036049 C34.8560148,25.768569 34.729109,25.4220855 34.4752936,25.1641438 C34.2214783,24.9062022 33.8879817,24.7772334 33.4747939,24.7772334 C33.057671,24.7772334 32.7074504,24.9264138 32.4241216,25.2247791 C32.1407929,25.5231444 31.9991306,25.9187131 31.9991306,26.4114971 L31.9991306,31.7358474 L29.4846003,31.7358474 Z M44.4209888,31.7358474 L44.4209888,22.86578 L46.817466,22.86578 L46.817466,24.4307463 L46.9237137,24.4307463 C47.1125996,23.9071634 47.4283884,23.4961954 47.8710896,23.1978301 C48.3137908,22.8994648 48.8401054,22.7502844 49.4500493,22.7502844 C50.0717986,22.7502844 50.6010645,22.9013897 51.037863,23.2036049 C51.4746615,23.50582 51.7658562,23.9148631 51.9114557,24.4307463 L52.0058981,24.4307463 C52.1908489,23.9225629 52.526313,23.5154447 53.0123005,23.2093796 C53.498288,22.9033146 54.073791,22.7502844 54.7388266,22.7502844 C55.5848778,22.7502844 56.27253,23.0130344 56.8018039,23.5385423 C57.3310777,24.0640502 57.5957107,24.8080274 57.5957107,25.7704961 L57.5957107,31.7358474 L55.0870831,31.7358474 L55.0870831,26.2555779 C55.0870831,25.7627939 54.953291,25.3932115 54.6857027,25.1468195 C54.4181144,24.9004275 54.0836341,24.7772334 53.6822516,24.7772334 C53.2257775,24.7772334 52.8696543,24.9196766 52.6138714,25.2045673 C52.3580885,25.4894581 52.230199,25.8609654 52.230199,26.3191005 L52.230199,31.7358474 L49.7924032,31.7358474 L49.7924032,26.2036049 C49.7924032,25.768569 49.6654974,25.4220855 49.4116821,25.1641438 C49.1578667,24.9062022 48.8243701,24.7772334 48.4111823,24.7772334 C47.9940594,24.7772334 47.6438388,24.9264138 47.3605101,25.2247791 C47.0771813,25.5231444 46.935519,25.9187131 46.935519,26.4114971 L46.935519,31.7358474 L44.4209888,31.7358474 Z M63.4892345,31.9090909 C62.5605457,31.9090909 61.7597604,31.7233372 61.0868546,31.3518243 C60.4139488,30.9803114 59.896488,30.4528864 59.5344568,29.7695336 C59.1724256,29.0861809 58.9914127,28.2767568 58.9914127,27.3412372 C58.9914127,26.4288169 59.1724256,25.6280549 59.5344568,24.9389273 C59.896488,24.2497997 60.4070624,23.7127502 61.0661953,23.3277627 C61.7253282,22.9427752 62.4995518,22.7502844 63.3888894,22.7502844 C64.1877191,22.7502844 64.9088193,22.9158265 65.5522118,23.2469157 C66.1956042,23.578005 66.7061786,24.0775188 67.0839503,24.745472 C67.4617219,25.4134253 67.650605,26.2497981 67.650605,27.2546155 L67.650605,27.9302651 L61.4764297,27.9302651 C61.4764297,28.5982184 61.6613777,29.1198686 62.0312791,29.5010062 C62.4011806,29.8821438 62.9009335,30.0727098 63.530553,30.0727098 C63.9516111,30.0727098 64.3156044,29.9860889 64.6225439,29.8128445 C64.9294834,29.6396001 65.1459118,29.3835873 65.2718357,29.0447983 L67.5974811,29.1949427 C67.4204006,30.0188159 66.9718034,30.6771346 66.2516762,31.1699186 C65.5315489,31.6627026 64.6107442,31.9090909 63.4892345,31.9090909 Z M61.4764297,26.4057223 L65.283641,26.4057223 C65.2797059,25.8782894 65.1065631,25.4432601 64.7642076,25.1006212 C64.421852,24.7579824 63.9771899,24.5866655 63.4302079,24.5866655 C62.8714206,24.5866655 62.4129858,24.7637571 62.0548897,25.1179456 C61.6967937,25.4721341 61.5039756,25.9013887 61.4764297,26.4057223 Z M69.0699176,31.7358474 L69.0699176,22.86578 L71.5077134,22.86578 L71.5077134,24.413422 L71.6021558,24.413422 C71.7674309,23.8628899 72.0448529,23.4461472 72.4344299,23.1631814 C72.824007,22.8802156 73.2726041,22.7387348 73.7802348,22.7387348 C74.0596285,22.7387348 74.3232777,22.7676084 74.5711904,22.8253565 L74.5711904,25.0082247 C74.4531367,24.9697259 74.2898316,24.937965 74.0812702,24.9129408 C73.8727087,24.8879166 73.6818582,24.8754047 73.5087128,24.8754047 C72.9538606,24.8754047 72.494442,25.0457591 72.1304433,25.386473 C71.7664445,25.7271869 71.5844479,26.1708784 71.5844479,26.7175606 L71.5844479,31.7358474 L69.0699176,31.7358474 Z M79.3136967,31.9090909 C78.385008,31.9090909 77.587174,31.7156376 76.9201709,31.3287252 C76.2531677,30.9418127 75.7416096,30.4038008 75.3854811,29.7146732 C75.0293525,29.0255456 74.8512909,28.2324833 74.8512909,27.3354624 C74.8512909,26.4268919 75.0313201,25.6290173 75.3913837,24.9418147 C75.7514473,24.254612 76.2639893,23.7175625 76.9290249,23.3306501 C77.5940604,22.9437377 78.3850081,22.7502844 79.3018914,22.7502844 C80.0928509,22.7502844 80.7864057,22.8908027 81.3825767,23.1718436 C81.9787476,23.4528844 82.4489876,23.8474907 82.7933108,24.3556742 C83.137634,24.8638576 83.3275007,25.4605827 83.3629168,26.145857 L80.9900503,26.145857 C80.9231532,25.7031214 80.7470591,25.3460509 80.4617628,25.0746347 C80.1764665,24.8032185 79.8036193,24.6675125 79.34321,24.6675125 C78.760812,24.6675125 78.2925395,24.8965766 77.9383786,25.3547117 C77.5842176,25.8128468 77.4071398,26.461541 77.4071398,27.3008137 C77.4071398,28.1477862 77.5832338,28.8032176 77.9354272,29.2671275 C78.2876206,29.7310374 78.7568769,29.9629889 79.34321,29.9629889 C79.7760734,29.9629889 80.1400667,29.8349825 80.4352009,29.5789658 C80.730335,29.3229491 80.9152829,28.9581789 80.9900503,28.4846443 L83.3629168,28.4846443 C83.3235656,29.1622223 83.1356664,29.758944 82.7992135,30.2748272 C82.4627605,30.7907104 81.9994069,31.1920539 81.4091386,31.4788695 C80.8188704,31.7656852 80.1203967,31.9090909 79.3136967,31.9090909 Z M88.790131,22.7502844 C89.5889607,22.7502844 90.310061,22.9158265 90.9534534,23.2469157 C91.5968458,23.578005 92.1074202,24.0775188 92.4851919,24.745472 C92.8629636,25.4134253 93.0518466,26.2497981 93.0518466,27.2546155 L93.0518466,27.9302651 L86.8776714,27.9302651 C86.8776714,28.5982184 87.0626193,29.1198686 87.4325208,29.5010062 C87.8024222,29.8821438 88.3021752,30.0727098 88.9317947,30.0727098 C89.3528527,30.0727098 89.716846,29.9860889 90.0237855,29.8128445 C90.330725,29.6396001 90.5471535,29.3835873 90.6730774,29.0447983 L92.9987227,29.1949427 C92.8216422,30.0188159 92.3730451,30.6771346 91.6529178,31.1699186 C90.9327905,31.6627026 90.0119858,31.9090909 88.8904761,31.9090909 C87.9617873,31.9090909 87.1610021,31.7233372 86.4880962,31.3518243 C85.8151904,30.9803114 85.2977297,30.4528864 84.9356985,29.7695336 C84.5736672,29.0861809 84.3926544,28.2767568 84.3926544,27.3412372 C84.3926544,26.4288169 84.5736672,25.6280549 84.9356985,24.9389273 C85.2977297,24.2497997 85.8083041,23.7127502 86.467437,23.3277627 C87.1265699,22.9427752 87.9007935,22.7502844 88.790131,22.7502844 Z M88.8314496,24.5866655 C88.2726623,24.5866655 87.8142275,24.7637571 87.4561314,25.1179456 C87.0980353,25.4721341 86.9052172,25.9013887 86.8776714,26.4057223 L86.8776714,26.4057223 L90.6848827,26.4057223 C90.6809475,25.8782894 90.5078048,25.4432601 90.1654492,25.1006212 C89.8230936,24.7579824 89.3784315,24.5866655 88.8314496,24.5866655 Z" id="Ecommerce" fill="#3167EB"></path>
        </g>
    </g>
</svg>